<svg xmlns="http://www.w3.org/2000/svg" width="16" height="16" viewBox="0 0 16 16" fill="none">
<path d="M9.33366 2.9585C10.2311 2.9585 10.9587 2.23096 10.9587 1.3335H11.7087C11.7087 2.23096 12.4362 2.9585 13.3337 2.9585V3.7085C12.4362 3.7085 11.7087 4.43604 11.7087 5.3335H10.9587C10.9587 4.43604 10.2311 3.7085 9.33366 3.7085V2.9585ZM0.666992 7.3335C2.87613 7.3335 4.66699 5.54264 4.66699 3.3335H6.00033C6.00033 5.54264 7.79119 7.3335 10.0003 7.3335V8.66683C7.79119 8.66683 6.00033 10.4577 6.00033 12.6668H4.66699C4.66699 10.4577 2.87613 8.66683 0.666992 8.66683V7.3335ZM3.251 8.00016C4.12511 8.48523 4.84861 9.2087 5.33366 10.0828C5.81871 9.2087 6.54221 8.48523 7.41633 8.00016C6.54221 7.5151 5.81871 6.79163 5.33366 5.9175C4.84861 6.79163 4.12511 7.5151 3.251 8.00016ZM11.5003 9.3335C11.5003 10.5301 10.5303 11.5002 9.33366 11.5002V12.5002C10.5303 12.5002 11.5003 13.4702 11.5003 14.6668H12.5003C12.5003 13.4702 13.4704 12.5002 14.667 12.5002V11.5002C13.4704 11.5002 12.5003 10.5301 12.5003 9.3335H11.5003Z" fill="currentColor"/>
</svg>
