<svg xmlns="http://www.w3.org/2000/svg" width="12" height="15" viewBox="0 0 12 15" fill="none">
<path d="M0.666668 14.1667C0.666668 11.2211 3.05448 8.83334 6 8.83334C8.94553 8.83334 11.3333 11.2211 11.3333 14.1667H10C10 11.9575 8.20913 10.1667 6 10.1667C3.79086 10.1667 2 11.9575 2 14.1667H0.666668ZM6 8.16667C3.79 8.16667 2 6.37667 2 4.16667C2 1.95667 3.79 0.166672 6 0.166672C8.21 0.166672 10 1.95667 10 4.16667C10 6.37667 8.21 8.16667 6 8.16667ZM6 6.83334C7.47333 6.83334 8.66667 5.64001 8.66667 4.16667C8.66667 2.69334 7.47333 1.50001 6 1.50001C4.52667 1.50001 3.33333 2.69334 3.33333 4.16667C3.33333 5.64001 4.52667 6.83334 6 6.83334Z" fill="#6F737A"/>
</svg>