<svg xmlns="http://www.w3.org/2000/svg" width="16" height="17" viewBox="0 0 16 17" fill="none">
<path fill-rule="evenodd" clip-rule="evenodd" d="M5.74408 4.25C5.74408 4.80228 5.29636 5.25 4.74408 5.25C4.19179 5.25 3.74408 4.80228 3.74408 4.25C3.74408 3.69772 4.19179 3.25 4.74408 3.25C5.29636 3.25 5.74408 3.69772 5.74408 4.25ZM5.24027 6.18797C6.10482 5.96727 6.74408 5.18329 6.74408 4.25C6.74408 3.14543 5.84865 2.25 4.74408 2.25C3.63951 2.25 2.74408 3.14543 2.74408 4.25C2.74408 5.18329 3.38334 5.96727 4.24789 6.18797C4.24537 6.20829 4.24408 6.22899 4.24408 6.25L4.24408 14.25C4.24408 14.5261 4.46794 14.75 4.74408 14.75C5.02022 14.75 5.24408 14.5261 5.24408 14.25V12.4397H9.25589C10.6366 12.4397 11.7559 11.3204 11.7559 9.93965V8.18699C12.6185 7.96497 13.2559 7.18192 13.2559 6.25C13.2559 5.14543 12.3605 4.25 11.2559 4.25C10.1513 4.25 9.25588 5.14543 9.25588 6.25C9.25588 7.18192 9.89327 7.96497 10.7559 8.18699V9.93965C10.7559 10.7681 10.0843 11.4397 9.25589 11.4397H5.24408L5.24408 6.25C5.24408 6.22899 5.24278 6.20829 5.24027 6.18797ZM11.2559 7.25C11.8082 7.25 12.2559 6.80228 12.2559 6.25C12.2559 5.69772 11.8082 5.25 11.2559 5.25C10.7036 5.25 10.2559 5.69772 10.2559 6.25C10.2559 6.80228 10.7036 7.25 11.2559 7.25Z" fill="#6F737A"/>
</svg>