<svg xmlns="http://www.w3.org/2000/svg" width="16" height="16" viewBox="0 0 16 16" fill="none">
  <path d="M11.024 10.6311L12.4382 9.21688L10.3168 7.09555L12.6739 4.73854L11.2596 3.32432L8.90263 5.68134L6.7813 3.56002L5.3671 4.97424L11.024 10.6311ZM10.0812 11.5739L4.4243 5.91704L2.53868 7.80268L8.1955 13.4595L10.0812 11.5739ZM8.90263 3.79572L10.7882 1.91011C11.0486 1.64976 11.4707 1.64976 11.731 1.91011L14.0881 4.26713C14.3484 4.52748 14.3484 4.94959 14.0881 5.20994L12.2025 7.09555L13.8524 8.74548C14.1128 9.00582 14.1128 9.42795 13.8524 9.68828L8.66696 14.8737C8.40656 15.1341 7.9845 15.1341 7.7241 14.8737L1.12446 8.27408C0.864111 8.01375 0.864111 7.59162 1.12446 7.33128L6.30991 2.14581C6.57026 1.88546 6.99236 1.88546 7.2527 2.14581L8.90263 3.79572Z" fill="currentColor"/>
</svg>