<svg xmlns="http://www.w3.org/2000/svg" width="16" height="17" viewBox="0 0 16 17" fill="none">
<path d="M11.4931 4.98802C11.2994 4.78025 10.9716 4.77566 10.7721 4.97793L7.99995 7.78867L5.22792 4.97806C5.02843 4.7758 4.70064 4.78038 4.50689 4.98816C4.32426 5.184 4.32853 5.489 4.51657 5.67965L7.29829 8.50009L4.51677 11.3203C4.32873 11.511 4.32446 11.816 4.50709 12.0118C4.70084 12.2196 5.02863 12.2242 5.22812 12.0219L7.99995 9.21152L10.7719 12.0221C10.9714 12.2243 11.2992 12.2197 11.4929 12.012C11.6756 11.8161 11.6713 11.5111 11.4833 11.3205L8.7016 8.50009L11.4835 5.67952C11.6715 5.48887 11.6758 5.18386 11.4931 4.98802Z" fill="#6F737A"/>
</svg>