<svg xmlns="http://www.w3.org/2000/svg" width="16" height="16" viewBox="0 0 16 16" fill="none">
  <path d="M3.40745 9.77751C3.41745 9.39251 3.28995 9.08501 3.02495 8.85501C2.75995 8.62501 2.40245 8.51001 1.95245 8.51001H1.41989V7.43001H1.95245C2.40245 7.43001 2.75995 7.31501 3.02495 7.08501C3.28995 6.85501 3.41745 6.54751 3.40745 6.16251L3.37744 4.58C3.36744 4.06 3.47495 3.605 3.69995 3.215C3.92994 2.825 4.25745 2.525 4.68245 2.315C5.10745 2.105 5.60745 2 6.18245 2H6.91989V3.005H6.18995C5.66995 3.005 5.25745 3.15 4.95245 3.44C4.65245 3.725 4.50495 4.1125 4.50995 4.6025L4.53995 6.17001C4.54995 6.68001 4.41244 7.09751 4.12744 7.42251C3.84245 7.74251 3.45745 7.92001 2.97245 7.95501C3.45745 8.04501 3.84245 8.25501 4.12744 8.58501C4.41244 8.91001 4.54995 9.30501 4.53995 9.77001L4.50995 11.5475C4.49995 11.9875 4.63245 12.3375 4.90745 12.5975C5.18745 12.8625 5.56494 12.995 6.03994 12.995H6.91989V14H6.03244C5.49745 14 5.02745 13.9 4.62244 13.7C4.22245 13.505 3.91245 13.2225 3.69245 12.8525C3.47744 12.4875 3.37244 12.06 3.37744 11.57L3.40745 9.77751Z" fill="#868A91"/>
  <path d="M11.6535 9.77751C11.6435 9.39251 11.771 9.08501 12.036 8.85501C12.301 8.62501 12.6585 8.51001 13.1085 8.51001H13.6389V7.43001H13.1085C12.6585 7.43001 12.301 7.31501 12.036 7.08501C11.771 6.85501 11.6435 6.54751 11.6535 6.16251L11.6835 4.58C11.6935 4.06 11.5835 3.605 11.3535 3.215C11.1285 2.825 10.8035 2.525 10.3785 2.315C9.95349 2.105 9.45349 2 8.87849 2H8.13894V3.005H8.87099C9.39099 3.005 9.80099 3.15 10.101 3.44C10.406 3.725 10.556 4.1125 10.551 4.6025L10.521 6.17001C10.511 6.68001 10.6485 7.09751 10.9335 7.42251C11.2185 7.74251 11.6035 7.92001 12.0885 7.95501C11.6035 8.04501 11.2185 8.25501 10.9335 8.58501C10.6485 8.91001 10.511 9.30501 10.521 9.77001L10.551 11.5475C10.561 11.9875 10.426 12.3375 10.146 12.5975C9.87099 12.8625 9.49599 12.995 9.02099 12.995H8.13894V14H9.02849C9.56349 14 10.031 13.9 10.431 13.7C10.836 13.505 11.146 13.2225 11.361 12.8525C11.581 12.4875 11.6885 12.06 11.6835 11.57L11.6535 9.77751Z" fill="#868A91"/>
</svg>