<svg xmlns="http://www.w3.org/2000/svg" width="16" height="17" viewBox="0 0 16 17" fill="none">
  <path d="M3.33333 8.77083C3.33333 8.97977 3.64067 9.3431 4.35365 9.69957C5.27603 10.1608 6.58451 10.4375 8 10.4375C9.41547 10.4375 10.7239 10.1608 11.6463 9.69957C12.3593 9.3431 12.6667 8.97977 12.6667 8.77083V7.3233C11.5667 8.00297 9.88487 8.4375 8 8.4375C6.11515 8.4375 4.43331 8.00297 3.33333 7.3233V8.77083ZM12.6667 10.6566C11.5667 11.3363 9.88487 11.7708 8 11.7708C6.11515 11.7708 4.43331 11.3363 3.33333 10.6566V12.1042C3.33333 12.3131 3.64067 12.6764 4.35365 13.0329C5.27603 13.4941 6.58451 13.7708 8 13.7708C9.41547 13.7708 10.7239 13.4941 11.6463 13.0329C12.3593 12.6764 12.6667 12.3131 12.6667 12.1042V10.6566ZM2 12.1042V5.4375C2 3.78065 4.68629 2.4375 8 2.4375C11.3137 2.4375 14 3.78065 14 5.4375V12.1042C14 13.761 11.3137 15.1042 8 15.1042C4.68629 15.1042 2 13.761 2 12.1042ZM8 7.10417C9.41547 7.10417 10.7239 6.82745 11.6463 6.36625C12.3593 6.00977 12.6667 5.64645 12.6667 5.4375C12.6667 5.22855 12.3593 4.86523 11.6463 4.50875C10.7239 4.04755 9.41547 3.77083 8 3.77083C6.58451 3.77083 5.27603 4.04755 4.35365 4.50875C3.64067 4.86523 3.33333 5.22855 3.33333 5.4375C3.33333 5.64645 3.64067 6.00977 4.35365 6.36625C5.27603 6.82745 6.58451 7.10417 8 7.10417Z" fill="#3574F0"/>
</svg>