<svg xmlns="http://www.w3.org/2000/svg" width="16" height="17" viewBox="0 0 16 17" fill="none">
<path d="M3.33333 9.17708C3.33333 9.38602 3.64067 9.74935 4.35365 10.1058C5.27603 10.567 6.58451 10.8438 8 10.8438C9.41547 10.8438 10.7239 10.567 11.6463 10.1058C12.3593 9.74935 12.6667 9.38602 12.6667 9.17708V7.72955C11.5667 8.40922 9.88487 8.84375 8 8.84375C6.11515 8.84375 4.43331 8.40922 3.33333 7.72955V9.17708ZM12.6667 11.0629C11.5667 11.7425 9.88487 12.1771 8 12.1771C6.11515 12.1771 4.43331 11.7425 3.33333 11.0629V12.5104C3.33333 12.7193 3.64067 13.0827 4.35365 13.4392C5.27603 13.9004 6.58451 14.1771 8 14.1771C9.41547 14.1771 10.7239 13.9004 11.6463 13.4392C12.3593 13.0827 12.6667 12.7193 12.6667 12.5104V11.0629ZM2 12.5104V5.84375C2 4.1869 4.68629 2.84375 8 2.84375C11.3137 2.84375 14 4.1869 14 5.84375V12.5104C14 14.1673 11.3137 15.5104 8 15.5104C4.68629 15.5104 2 14.1673 2 12.5104ZM8 7.51042C9.41547 7.51042 10.7239 7.2337 11.6463 6.7725C12.3593 6.41602 12.6667 6.0527 12.6667 5.84375C12.6667 5.6348 12.3593 5.27148 11.6463 4.915C10.7239 4.4538 9.41547 4.17708 8 4.17708C6.58451 4.17708 5.27603 4.4538 4.35365 4.915C3.64067 5.27148 3.33333 5.6348 3.33333 5.84375C3.33333 6.0527 3.64067 6.41602 4.35365 6.7725C5.27603 7.2337 6.58451 7.51042 8 7.51042Z" fill="currentColor"/>
</svg>