<svg xmlns="http://www.w3.org/2000/svg" width="16" height="17" viewBox="0 0 16 17" fill="none">
<path fill-rule="evenodd" clip-rule="evenodd" d="M7 2.5H9C9.55228 2.5 10 2.94772 10 3.5H6C6 2.94772 6.44772 2.5 7 2.5ZM5 3.5C5 2.39543 5.89543 1.5 7 1.5H9C10.1046 1.5 11 2.39543 11 3.5H13C13.5523 3.5 14 3.94772 14 4.5V5.5V6.5H13V13.5C13 14.6046 12.1046 15.5 11 15.5H5C3.89543 15.5 3 14.6046 3 13.5V6.5H2V5.5V4.5C2 3.94772 2.44772 3.5 3 3.5H5ZM11 4.5H10H6H5H3V5.5H4H12H13V4.5H11ZM4 6.5H12V13.5C12 14.0523 11.5523 14.5 11 14.5H5C4.44772 14.5 4 14.0523 4 13.5V6.5ZM6.5 7.5C6.22386 7.5 6 7.72386 6 8V12C6 12.2761 6.22386 12.5 6.5 12.5C6.77614 12.5 7 12.2761 7 12V8C7 7.72386 6.77614 7.5 6.5 7.5ZM9 8C9 7.72386 9.22386 7.5 9.5 7.5C9.77614 7.5 10 7.72386 10 8V12C10 12.2761 9.77614 12.5 9.5 12.5C9.22386 12.5 9 12.2761 9 12V8Z" fill="#6F737A"/>
</svg>