<svg xmlns="http://www.w3.org/2000/svg" width="16" height="16" viewBox="0 0 16 16" fill="none">
<path d="M6.26662 10.6667H1.99984C1.26346 10.6667 0.666504 10.0697 0.666504 9.33333V7.93047C0.666504 7.75627 0.700624 7.5838 0.766931 7.4228L2.82984 2.41283C2.9327 2.16303 3.17615 2 3.4463 2H14.6665C15.0347 2 15.3332 2.29848 15.3332 2.66667V9.33333C15.3332 9.70153 15.0347 10 14.6665 10H12.3453C12.1286 10 11.9256 10.1053 11.8006 10.2822L8.16504 15.4327C8.07004 15.5672 7.89097 15.6123 7.74364 15.5385L6.53426 14.9339C5.83316 14.5833 5.47108 13.7916 5.66446 13.032L6.26662 10.6667ZM11.3332 8.94167V3.33333H3.89276L1.99984 7.93047V9.33333H6.26662C7.13644 9.33333 7.7733 10.1527 7.55877 10.9956L6.95657 13.3609C6.9179 13.5129 6.9903 13.6712 7.13057 13.7413L7.5713 13.9617L10.7114 9.51333C10.878 9.27727 11.0909 9.0838 11.3332 8.94167ZM12.6665 8.66667H13.9998V3.33333H12.6665V8.66667Z" fill="currentColor"/>
</svg>