<svg xmlns="http://www.w3.org/2000/svg" width="12" height="13" viewBox="0 0 12 13" fill="none">
  <rect x="0.5" y="2.5" width="9" height="10" rx="1.5" stroke="currentColor"/>
  <rect x="3.25" y="5.25" width="3.5" height="0.5" rx="0.25" fill="#CED0D6" stroke="currentColor" stroke-width="0.5"/>
  <rect x="3.25" y="7.25" width="3.5" height="0.5" rx="0.25" fill="#CED0D6" stroke="currentColor" stroke-width="0.5"/>
  <rect x="3.25" y="9.25" width="3.5" height="0.5" rx="0.25" fill="#CED0D6" stroke="currentColor" stroke-width="0.5"/>
  <mask id="path-5-inside-1_1351_93212" fill="white">
    <path fill-rule="evenodd" clip-rule="evenodd" d="M9.00195 1H9.6C10.3732 1 11 1.6268 11 2.4V2.91081C11.0013 2.94038 11.002 2.97011 11.002 3V10.5482C11.6065 10.1124 12 9.40215 12 8.6V2.4C12 1.07452 10.9255 0 9.6 0H4.4C3.59699 0 2.88609 0.394373 2.45042 1H4.4H9.00195Z"/>
  </mask>
  <path fill-rule="evenodd" clip-rule="evenodd" d="M9.00195 1H9.6C10.3732 1 11 1.6268 11 2.4V2.91081C11.0013 2.94038 11.002 2.97011 11.002 3V10.5482C11.6065 10.1124 12 9.40215 12 8.6V2.4C12 1.07452 10.9255 0 9.6 0H4.4C3.59699 0 2.88609 0.394373 2.45042 1H4.4H9.00195Z" fill="#CED0D6"/>
  <path d="M11 2.91081H10V2.93275L10.001 2.95467L11 2.91081ZM11.002 10.5482H10.002V12.5018L11.5867 11.3594L11.002 10.5482ZM2.45042 1L1.63864 0.416031L0.49918 2H2.45042V1ZM9.6 0H9.00195V2H9.6V0ZM12 2.4C12 1.07452 10.9255 0 9.6 0V2C9.82091 2 10 2.17909 10 2.4H12ZM12 2.91081V2.4H10V2.91081H12ZM10.001 2.95467C10.0016 2.96962 10.002 2.98473 10.002 3H12.002C12.002 2.9555 12.001 2.91114 11.999 2.86696L10.001 2.95467ZM10.002 3V10.5482H12.002V3H10.002ZM11.5867 11.3594C12.4408 10.7437 13 9.73714 13 8.6H11C11 9.06716 10.7722 9.48106 10.4172 9.73698L11.5867 11.3594ZM13 8.6V2.4H11V8.6H13ZM13 2.4C13 0.522232 11.4778 -1 9.6 -1V1C10.3732 1 11 1.6268 11 2.4H13ZM9.6 -1H4.4V1H9.6V-1ZM4.4 -1C3.26163 -1 2.25414 -0.439568 1.63864 0.416031L3.26219 1.58397C3.51804 1.22831 3.93234 1 4.4 1V-1ZM2.45042 2H4.4V0H2.45042V2ZM4.4 2H9.00195V0H4.4V2Z" fill="currentColor" mask="url(#path-5-inside-1_1351_93212)"/>
</svg>