<svg xmlns="http://www.w3.org/2000/svg" width="16" height="17" viewBox="0 0 16 17" fill="none">
  <path fill-rule="evenodd" clip-rule="evenodd" d="M4.27084 3.25H11.7292C12.2815 3.25 12.7292 3.69771 12.7292 4.25V12.75C12.7292 13.3023 12.2815 13.75 11.7292 13.75H4.27084C3.71856 13.75 3.27084 13.3023 3.27084 12.75V4.25C3.27084 3.69772 3.71856 3.25 4.27084 3.25ZM2.27084 4.25C2.27084 3.14543 3.16627 2.25 4.27084 2.25H11.7292C12.8337 2.25 13.7292 3.14543 13.7292 4.25V12.75C13.7292 13.8546 12.8337 14.75 11.7292 14.75H4.27084C3.16627 14.75 2.27084 13.8546 2.27084 12.75V4.25ZM7.71807 5.94174C7.88375 5.94174 8.01807 5.80742 8.01807 5.64174V5.20007C8.01807 5.03438 7.88375 4.90007 7.71807 4.90007H5.19307C5.02738 4.90007 4.89307 5.03438 4.89307 5.20007V5.64174C4.89307 5.80742 5.02738 5.94174 5.19307 5.94174H7.71807ZM11.125 8.47733C11.125 8.64301 10.9907 8.77733 10.825 8.77733H5.17501C5.00932 8.77733 4.87501 8.64301 4.87501 8.47733V8.03566C4.87501 7.86998 5.00932 7.73566 5.17501 7.73566H10.825C10.9907 7.73566 11.125 7.86998 11.125 8.03566V8.47733ZM10.825 11.6129C10.9907 11.6129 11.125 11.4786 11.125 11.3129V10.8713C11.125 10.7056 10.9907 10.5713 10.825 10.5713H5.17501C5.00932 10.5713 4.87501 10.7056 4.87501 10.8713V11.3129C4.87501 11.4786 5.00932 11.6129 5.17501 11.6129H10.825Z" fill="currentColor"/>
</svg>