<svg xmlns="http://www.w3.org/2000/svg" width="16" height="17" viewBox="0 0 16 17" fill="none">
<path fill-rule="evenodd" clip-rule="evenodd" d="M8.28735 1.76882C8.5028 1.8296 8.65159 2.02617 8.6516 2.25003L8.6517 6.78812H12.5C12.679 6.78812 12.8443 6.8838 12.9335 7.03899C13.0227 7.19418 13.0221 7.38521 12.932 7.53986L8.5836 15.0017C8.46984 15.1969 8.23932 15.2916 8.02121 15.2327C7.8031 15.1737 7.6516 14.9759 7.6516 14.7499L7.65171 10.3383H3.50007C3.31908 10.3383 3.15223 10.2405 3.0638 10.0826C2.97538 9.92464 2.9792 9.73127 3.07378 9.57697L7.72532 1.98873C7.84231 1.79788 8.0719 1.70805 8.28735 1.76882ZM4.39302 9.33828H8.15172C8.28433 9.33828 8.41151 9.39096 8.50527 9.48473C8.59904 9.5785 8.65172 9.70568 8.65172 9.83829L8.65164 12.8988L11.6299 7.78811H8.15172C7.87558 7.78811 7.65173 7.56426 7.65172 7.28812L7.65165 4.02235L4.39302 9.33828Z" fill="#6F737A"/>
</svg>