<svg xmlns="http://www.w3.org/2000/svg" width="14" height="14" viewBox="0 0 14 14" fill="none">
  <path fill-rule="evenodd" clip-rule="evenodd" d="M7 1.44828C5.90197 1.44828 4.82861 1.77388 3.91563 2.38391C3.00265 2.99394 2.29108 3.861 1.87088 4.87545C1.45068 5.88989 1.34074 7.00616 1.55495 8.08309C1.76917 9.16002 2.29792 10.1492 3.07434 10.9257C3.85076 11.7021 4.83998 12.2308 5.91691 12.445C6.99384 12.6593 8.11011 12.5493 9.12455 12.1291C10.139 11.7089 11.0061 10.9973 11.6161 10.0844C12.2261 9.1714 12.5517 8.09803 12.5517 7H14C14 8.38447 13.5895 9.73785 12.8203 10.889C12.0511 12.0401 10.9579 12.9373 9.67878 13.4672C8.3997 13.997 6.99224 14.1356 5.63437 13.8655C4.2765 13.5954 3.02922 12.9287 2.05026 11.9497C1.07129 10.9708 0.404603 9.7235 0.134506 8.36563C-0.13559 7.00776 0.00303302 5.6003 0.532846 4.32122C1.06266 3.04213 1.95987 1.94888 3.11101 1.17971C4.26215 0.410543 5.61553 0 7 0V1.44828Z" fill="#5FAD65"/>
  <path d="M7 1.44828C8.09803 1.44828 9.1714 1.77388 10.0844 2.38391C10.9973 2.99394 11.7089 3.861 12.1291 4.87545C12.4095 5.55228 12.5517 6.27444 12.5517 7H14C14 6.08516 13.8206 5.17461 13.4672 4.32121C12.9373 3.04213 12.0401 1.94888 10.889 1.17971C9.73785 0.410544 8.38447 0 7 0V1.44828Z" fill="#4E8052"/>
</svg>