<svg xmlns="http://www.w3.org/2000/svg" width="16" height="16" viewBox="0 0 16 16" fill="none">
<path d="M9.73304 5.3329H13.9998C14.7362 5.3329 15.3332 5.92986 15.3332 6.66622V8.06915C15.3332 8.24328 15.299 8.41575 15.2328 8.57682L13.1698 13.5867C13.067 13.8365 12.8235 13.9995 12.5534 13.9995H1.33317C0.964984 13.9995 0.666504 13.7011 0.666504 13.3329V6.66622C0.666504 6.29804 0.964984 5.99957 1.33317 5.99957H3.6544C3.87102 5.99957 4.07412 5.89432 4.19904 5.71736L7.83464 0.566919C7.92964 0.43234 8.1087 0.387334 8.25604 0.461004L9.46544 1.06569C10.1665 1.41624 10.5286 2.20796 10.3352 2.96758L9.73304 5.3329ZM4.6665 7.05788V12.6662H12.1069L13.9998 8.06915V6.66622H9.73304C8.86324 6.66622 8.22637 5.84687 8.4409 5.00396L9.0431 2.63864C9.08177 2.48672 9.00937 2.32837 8.8691 2.25826L8.42837 2.03788L5.28834 6.48627C5.12174 6.72228 4.90878 6.91575 4.6665 7.05788ZM3.33317 7.33288H1.99984V12.6662H3.33317V7.33288Z" fill="currentColor"/>
</svg>