<svg xmlns="http://www.w3.org/2000/svg" width="48" height="48" viewBox="0 0 48 48" fill="none">
  <path fill-rule="evenodd" clip-rule="evenodd" d="M24 0C10.7451 0 0 10.7452 0 24C0 37.2548 10.7451 48 24 48C37.2549 48 48 37.2548 48 24C48 10.7452 37.2549 0 24 0ZM25.8 28.3456V39.3754H22.2V28.3452L14.4003 36.1449L11.8547 33.5993L19.6539 25.8H8.62448V22.2H19.6544L11.8549 14.4007L14.4005 11.8551L22.2 19.6544V8.62448H25.8V19.654L33.599 11.8551L36.1445 14.4007L28.3451 22.2H39.3755V25.8H28.3456L36.1448 33.5992L33.5992 36.1448L25.8 28.3456Z" fill="currentColor"/>
</svg>