<svg xmlns="http://www.w3.org/2000/svg" width="16" height="16" viewBox="0 0 16 16" fill="none">
  <path fill-rule="evenodd" clip-rule="evenodd" d="M14 8C14 11.3137 11.3137 14 8 14C4.68629 14 2 11.3137 2 8C2 4.68629 4.68629 2 8 2C11.3137 2 14 4.68629 14 8ZM15 8C15 11.866 11.866 15 8 15C4.13401 15 1 11.866 1 8C1 4.13401 4.13401 1 8 1C11.866 1 15 4.13401 15 8ZM11.1061 8.25976C11.3061 8.14429 11.3061 7.85562 11.1061 7.74015L6.88272 5.3018C6.68272 5.18633 6.43272 5.33067 6.43272 5.56161V10.4383C6.43272 10.6692 6.68272 10.8136 6.88272 10.6981L11.1061 8.25976Z" fill="#5FAD65"/>
</svg>