<svg xmlns="http://www.w3.org/2000/svg" width="16" height="16" viewBox="0 0 16 16" fill="none">
  <path d="M4.66667 3.33334C4.66667 1.86058 5.86057 0.666672 7.33333 0.666672C8.80607 0.666672 10 1.86058 10 3.33334H12C12.3682 3.33334 12.6667 3.63182 12.6667 4V6C14.1394 6 15.3333 7.19394 15.3333 8.66667C15.3333 10.1394 14.1394 11.3333 12.6667 11.3333V13.3333C12.6667 13.7015 12.3682 14 12 14H2.66667C2.29848 14 2 13.7015 2 13.3333V4C2 3.63182 2.29848 3.33334 2.66667 3.33334H4.66667ZM7.33333 2.00001C6.59695 2.00001 6 2.59696 6 3.33334C6 3.49037 6.02687 3.63968 6.0757 3.77784C6.14781 3.98188 6.11641 4.20824 5.99145 4.38493C5.86649 4.56163 5.66355 4.66667 5.44714 4.66667H3.33333V12.6667H11.3333V10.5529C11.3333 10.3365 11.4384 10.1335 11.6151 10.0085C11.7918 9.88361 12.0181 9.8522 12.2221 9.92434C12.3603 9.97314 12.5097 10 12.6667 10C13.4031 10 14 9.40307 14 8.66667C14 7.93027 13.4031 7.33334 12.6667 7.33334C12.5097 7.33334 12.3603 7.3602 12.2221 7.409C12.0181 7.48114 11.7918 7.44974 11.6151 7.3248C11.4384 7.1998 11.3333 6.99687 11.3333 6.78047V4.66667H9.21953C9.00313 4.66667 8.8002 4.56163 8.6752 4.38493C8.55027 4.20824 8.51887 3.98188 8.591 3.77784C8.6398 3.63968 8.66667 3.49037 8.66667 3.33334C8.66667 2.59696 8.06973 2.00001 7.33333 2.00001Z" fill="currentColor"/>
</svg>