<svg xmlns="http://www.w3.org/2000/svg" width="16" height="17" viewBox="0 0 16 17" fill="none">
  <path d="M3.33333 5.41683C3.33333 4.86454 3.78105 4.41683 4.33333 4.41683C4.88562 4.41683 5.33333 4.86454 5.33333 5.41683C5.33333 5.96912 4.88562 6.41683 4.33333 6.41683C3.78105 6.41683 3.33333 5.96912 3.33333 5.41683ZM4.33333 3.0835C3.04467 3.0835 2 4.12816 2 5.41683C2 6.7055 3.04467 7.75016 4.33333 7.75016C5.622 7.75016 6.66667 6.7055 6.66667 5.41683C6.66667 4.12816 5.622 3.0835 4.33333 3.0835ZM8 6.0835H13.3333V4.75016H8V6.0835ZM10.6667 12.0835C10.6667 11.5312 11.1144 11.0835 11.6667 11.0835C12.2189 11.0835 12.6667 11.5312 12.6667 12.0835C12.6667 12.6358 12.2189 13.0835 11.6667 13.0835C11.1144 13.0835 10.6667 12.6358 10.6667 12.0835ZM11.6667 9.75016C10.378 9.75016 9.33333 10.7948 9.33333 12.0835C9.33333 13.3722 10.378 14.4168 11.6667 14.4168C12.9553 14.4168 14 13.3722 14 12.0835C14 10.7948 12.9553 9.75016 11.6667 9.75016ZM2.66667 11.4168V12.7502H8V11.4168H2.66667Z" fill="currentColor"/>
</svg>