<svg xmlns="http://www.w3.org/2000/svg" width="16" height="16" viewBox="0 0 16 16" fill="none">
  <path d="M8.00001 0.666672L14.3333 4.33334V11.6667L8.00001 15.3333L1.66667 11.6667V4.33334L8.00001 0.666672ZM8.00001 2.20734L3.00001 5.10208V10.8979L8.00001 13.7927L13 10.8979V5.10208L8.00001 2.20734ZM8.00001 10.6667C6.52725 10.6667 5.33334 9.47274 5.33334 8.00001C5.33334 6.52725 6.52725 5.33334 8.00001 5.33334C9.47274 5.33334 10.6667 6.52725 10.6667 8.00001C10.6667 9.47274 9.47274 10.6667 8.00001 10.6667ZM8.00001 9.33334C8.73641 9.33334 9.33334 8.73641 9.33334 8.00001C9.33334 7.26361 8.73641 6.66667 8.00001 6.66667C7.26361 6.66667 6.66667 7.26361 6.66667 8.00001C6.66667 8.73641 7.26361 9.33334 8.00001 9.33334Z" fill="currentColor"/>
</svg>