<svg xmlns="http://www.w3.org/2000/svg" width="16" height="16" viewBox="0 0 16 16" fill="none">
  <path d="M13.3366 14.6673H2.6699C2.30171 14.6673 2.00323 14.3689 2.00323 14.0007V2.00065C2.00323 1.63246 2.30171 1.33398 2.6699 1.33398H13.3366C13.7048 1.33398 14.0032 1.63246 14.0032 2.00065V14.0007C14.0032 14.3689 13.7048 14.6673 13.3366 14.6673ZM12.6699 13.334V2.66732H3.33657V13.334H12.6699ZM6.00323 4.00065V5.33398C6.00323 6.43855 6.89865 7.33398 8.00325 7.33398C9.10778 7.33398 10.0032 6.43855 10.0032 5.33398V4.00065H11.3366V5.33398C11.3366 7.17492 9.84418 8.66732 8.00325 8.66732C6.16229 8.66732 4.6699 7.17492 4.6699 5.33398V4.00065H6.00323Z" fill="currentColor"/>
</svg>