<svg xmlns="http://www.w3.org/2000/svg" width="48" height="48" viewBox="0 0 48 48" fill="none">
  <path d="M42.6058 6.77679e-06C42.3871 0.000911012 42.1777 0.093637 42.0232 0.25793C41.8687 0.422224 41.7818 0.644732 41.7813 0.876851V3.65839C41.7822 3.89021 41.8693 4.11228 42.0238 4.27621C42.1782 4.44013 42.3874 4.53262 42.6058 4.53352C42.7145 4.53397 42.8222 4.5117 42.9227 4.46796C43.0233 4.42423 43.1148 4.35989 43.192 4.27863C43.2691 4.19737 43.3304 4.10077 43.3724 3.99435C43.4144 3.88793 43.4362 3.77377 43.4367 3.65839V0.876851C43.4364 0.76133 43.4148 0.646989 43.3729 0.54037C43.331 0.433751 43.2697 0.336948 43.1925 0.255503C43.1153 0.174058 43.0238 0.109569 42.9231 0.0657272C42.8224 0.021886 42.7146 -0.000446936 42.6058 6.77679e-06ZM26.0901 3.64123C25.7619 3.64123 25.516 3.80492 25.3643 3.94839C25.2126 4.09186 25.1184 4.23739 25.0313 4.38767C24.8567 4.68819 24.7229 5.02583 24.5867 5.41724C24.3143 6.20004 24.0554 7.18523 23.8044 8.18848C23.5532 9.19173 23.3106 10.2112 23.098 10.9992C22.9916 11.3932 22.8931 11.7305 22.8102 11.9653C22.7777 12.0572 22.7392 12.1291 22.7101 12.1832C22.6585 12.2147 22.5903 12.2555 22.5049 12.2896C22.2838 12.3776 21.9659 12.4821 21.5948 12.595C20.8526 12.8208 19.8969 13.0783 18.9518 13.3449C18.0068 13.6114 17.0738 13.8863 16.3364 14.1754C15.9677 14.3199 15.6496 14.4619 15.3665 14.6473C15.2251 14.7399 15.0925 14.8397 14.9575 15.0007C14.8224 15.1618 14.665 15.4228 14.665 15.7712C14.665 16.1196 14.8224 16.3806 14.9575 16.5417C15.0926 16.7027 15.2249 16.8025 15.3665 16.8951C15.6496 17.0805 15.9677 17.2242 16.3364 17.3687C17.0738 17.6578 18.0068 17.931 18.9518 18.1975C19.8969 18.4641 20.8526 18.7216 21.5948 18.9474C21.9659 19.0603 22.2837 19.1665 22.5049 19.2546C22.5906 19.2887 22.6601 19.3268 22.7117 19.3575C22.7398 19.4125 22.778 19.4851 22.8102 19.5772C22.8931 19.812 22.9916 20.1493 23.098 20.5432C23.3107 21.3312 23.5533 22.3473 23.8044 23.3505C24.0556 24.3538 24.3144 25.339 24.5867 26.1218C24.7231 26.5132 24.8567 26.8508 25.0313 27.1513C25.1185 27.3016 25.2127 27.4472 25.3643 27.5906C25.516 27.7341 25.7619 27.9012 26.0901 27.9012C26.4183 27.9012 26.6642 27.7341 26.8159 27.5906C26.9676 27.4471 27.0617 27.3016 27.1489 27.1513C27.3234 26.8508 27.4589 26.5132 27.5951 26.1218C27.8675 25.339 28.1247 24.3538 28.3758 23.3505C28.627 22.3473 28.8695 21.3312 29.0822 20.5432C29.1886 20.1493 29.2887 19.8119 29.3715 19.5772C29.4041 19.4857 29.441 19.4141 29.4701 19.3593C29.5217 19.3284 29.5896 19.2889 29.6753 19.2546C29.8964 19.1665 30.2142 19.0603 30.5853 18.9474C31.3276 18.7216 32.2833 18.4641 33.2283 18.1975C34.1733 17.931 35.1064 17.6578 35.8438 17.3687C36.2125 17.2242 36.5306 17.0805 36.8137 16.8951C36.955 16.8025 37.0892 16.7027 37.2243 16.5417C37.3594 16.3806 37.5167 16.1196 37.5167 15.7712C37.5167 15.4228 37.3591 15.1618 37.2243 15.0007C37.0891 14.8397 36.9553 14.7399 36.8137 14.6473C36.5306 14.4619 36.2125 14.3199 35.8438 14.1754C35.1064 13.8863 34.1733 13.6114 33.2283 13.3449C32.2833 13.0783 31.3276 12.8208 30.5853 12.595C30.2142 12.4821 29.8964 12.3776 29.6753 12.2896C29.5892 12.2553 29.5217 12.2148 29.4701 12.1832C29.4419 12.1291 29.4038 12.0572 29.3715 11.9653C29.2887 11.7305 29.1886 11.3932 29.0822 10.9992C28.8695 10.2112 28.6269 9.19173 28.3758 8.18848C28.1246 7.18523 27.8674 6.20004 27.5951 5.41724C27.459 5.02583 27.3236 4.6882 27.1489 4.38768C27.0616 4.23743 26.9678 4.09183 26.8159 3.94839C26.6642 3.80492 26.4182 3.64123 26.0901 3.64123ZM7.15774 4.54038C6.93936 4.54129 6.73016 4.63379 6.57575 4.79771C6.42133 4.96163 6.3342 5.1837 6.33335 5.41551V8.19877C6.33249 8.43177 6.41886 8.6556 6.57347 8.821C6.72807 8.98641 6.93824 9.07985 7.15774 9.08076C7.26697 9.08122 7.37521 9.05871 7.47621 9.01455C7.57721 8.97039 7.66898 8.90544 7.74622 8.82345C7.82346 8.74146 7.88465 8.64405 7.92625 8.53683C7.96786 8.42962 7.98906 8.31472 7.98863 8.19877V5.41551C7.9882 5.30014 7.96638 5.18598 7.92439 5.07956C7.88241 4.97314 7.82108 4.87654 7.74393 4.79527C7.66677 4.71401 7.57529 4.64967 7.47471 4.60594C7.37413 4.56221 7.26643 4.53993 7.15774 4.54038ZM38.0424 4.84582C37.9332 4.84536 37.825 4.86787 37.7239 4.91203C37.6229 4.95619 37.5312 5.02114 37.4539 5.10313C37.3767 5.18512 37.3155 5.28253 37.2739 5.38975C37.2323 5.49696 37.2111 5.61186 37.2115 5.72781C37.212 5.84319 37.2338 5.95735 37.2758 6.06377C37.3178 6.17019 37.3791 6.26679 37.4562 6.34805C37.5334 6.42932 37.6249 6.49365 37.7254 6.53739C37.826 6.58112 37.9337 6.6034 38.0424 6.60294H40.6627C40.8811 6.60205 41.0903 6.50956 41.2447 6.34564C41.3992 6.18171 41.4863 5.95964 41.4872 5.72781C41.4876 5.61243 41.4666 5.4981 41.4254 5.39133C41.3842 5.28456 41.3236 5.18746 41.247 5.10555C41.1705 5.02365 41.0795 4.95856 40.9792 4.914C40.879 4.86943 40.7714 4.84626 40.6627 4.84582H38.0424ZM44.5553 4.84582C44.4466 4.84627 44.339 4.86944 44.2388 4.91401C44.1385 4.95857 44.0475 5.02367 43.971 5.10557C43.8944 5.18747 43.8338 5.28457 43.7926 5.39134C43.7514 5.4981 43.7304 5.61244 43.7308 5.72781C43.7317 5.95963 43.8188 6.1817 43.9732 6.34563C44.1277 6.50955 44.3369 6.60204 44.5553 6.60294H47.1756C47.394 6.60204 47.6032 6.50955 47.7576 6.34563C47.912 6.1817 47.9991 5.95963 48 5.72781C48.0004 5.61244 47.9794 5.4981 47.9382 5.39134C47.897 5.28457 47.8364 5.18747 47.7599 5.10557C47.6833 5.02367 47.5923 4.95857 47.4921 4.91401C47.3918 4.86944 47.2843 4.84627 47.1756 4.84582H44.5553ZM26.0901 6.19626C26.31 6.85502 26.5444 7.71637 26.7755 8.63976C27.0226 9.62754 27.2649 10.6458 27.49 11.4796C27.6026 11.8966 27.7123 12.2698 27.823 12.583C27.9337 12.8962 27.9696 13.1213 28.2756 13.4461C28.5815 13.7709 28.8001 13.8143 29.0951 13.9317C29.3901 14.0492 29.7369 14.1657 30.1297 14.2852C30.9152 14.5241 31.8729 14.7761 32.8034 15.0385C33.6733 15.2839 34.4895 15.5378 35.1101 15.7712C34.4895 16.0047 33.6733 16.2534 32.8034 16.4988C31.8729 16.7612 30.9152 17.0183 30.1297 17.2572C29.7369 17.3766 29.3902 17.4898 29.0951 17.6073C28.8002 17.7247 28.5816 17.7663 28.2756 18.0912C27.9697 18.416 27.9336 18.6479 27.823 18.9611C27.7122 19.2744 27.6024 19.6424 27.49 20.0593C27.2651 20.8932 27.0227 21.9114 26.7755 22.8992C26.5443 23.8226 26.31 24.684 26.0901 25.3427C25.8702 24.684 25.6358 23.8226 25.4047 22.8992C25.1576 21.9114 24.9153 20.8932 24.6902 20.0593C24.5776 19.6424 24.4678 19.2744 24.3572 18.9611C24.2465 18.6479 24.2105 18.416 23.9046 18.0912C23.5987 17.7663 23.3817 17.7247 23.0866 17.6073C22.7917 17.4898 22.4448 17.3767 22.0521 17.2572C21.2666 17.0183 20.3073 16.7612 19.3768 16.4988C18.5069 16.2534 17.6907 16.0047 17.0701 15.7712C17.6907 15.5378 18.5068 15.2839 19.3768 15.0385C20.3073 14.7761 21.2666 14.5241 22.0521 14.2852C22.4448 14.1658 22.7916 14.0492 23.0866 13.9317C23.3816 13.8143 23.5986 13.7709 23.9046 13.4461C24.2105 13.1213 24.2466 12.8962 24.3572 12.583C24.4679 12.2698 24.5777 11.8966 24.6902 11.4796C24.9151 10.6458 25.1575 9.62754 25.4047 8.63976C25.6358 7.71637 25.8702 6.85502 26.0901 6.19626ZM42.6058 6.91353C42.3871 6.91443 42.1777 7.00716 42.0232 7.17145C41.8687 7.33574 41.7818 7.55825 41.7813 7.79037V10.5719C41.7809 10.6873 41.8019 10.8016 41.8431 10.9084C41.8843 11.0152 41.9449 11.1123 42.0215 11.1942C42.098 11.2761 42.189 11.3411 42.2893 11.3857C42.3895 11.4303 42.4971 11.4535 42.6058 11.4539C42.715 11.4544 42.8232 11.4319 42.9242 11.3877C43.0252 11.3435 43.117 11.2786 43.1942 11.1966C43.2715 11.1146 43.3327 11.0172 43.3743 10.91C43.4159 10.8028 43.4371 10.6879 43.4367 10.5719V7.79037C43.4364 7.67485 43.4148 7.56051 43.3729 7.45389C43.331 7.34727 43.2697 7.25047 43.1925 7.16902C43.1153 7.08758 43.0238 7.02309 42.9231 6.97925C42.8224 6.9354 42.7146 6.91307 42.6058 6.91353ZM2.5944 9.38448C2.48517 9.38403 2.37693 9.40653 2.27593 9.4507C2.17494 9.49486 2.08317 9.55981 2.00593 9.6418C1.9287 9.72379 1.86751 9.82121 1.82591 9.92842C1.78431 10.0356 1.76311 10.1505 1.76354 10.2665C1.76375 10.382 1.78542 10.4963 1.82731 10.6029C1.8692 10.7096 1.93048 10.8064 2.00766 10.8878C2.08483 10.9693 2.17638 11.0337 2.27706 11.0776C2.37774 11.1214 2.48557 11.1438 2.5944 11.1433H5.21472C5.43367 11.1429 5.64353 11.0503 5.79835 10.886C5.95317 10.7217 6.04034 10.4989 6.04077 10.2665C6.04119 10.151 6.02015 10.0365 5.97885 9.9296C5.93755 9.82272 5.87679 9.72554 5.80007 9.64362C5.72334 9.56169 5.63215 9.49664 5.53171 9.45217C5.43126 9.40771 5.32355 9.3847 5.21472 9.38448H2.5944ZM9.10723 9.38448C8.99799 9.38403 8.88976 9.40653 8.78876 9.4507C8.68776 9.49486 8.596 9.55981 8.51876 9.6418C8.44152 9.72379 8.38034 9.82121 8.33874 9.92842C8.29713 10.0356 8.27594 10.1505 8.27636 10.2665C8.27658 10.382 8.29825 10.4963 8.34013 10.6029C8.38202 10.7096 8.44331 10.8064 8.52048 10.8878C8.59766 10.9693 8.6892 11.0337 8.78988 11.0776C8.89056 11.1214 8.9984 11.1438 9.10723 11.1433H11.7276C11.9465 11.1429 12.1564 11.0503 12.3112 10.886C12.466 10.7216 12.5532 10.4989 12.5536 10.2665C12.554 10.151 12.533 10.0365 12.4917 9.92961C12.4504 9.82273 12.3896 9.72555 12.3129 9.64363C12.2362 9.56171 12.145 9.49665 12.0446 9.45218C11.9441 9.40771 11.8364 9.38471 11.7276 9.38448H9.10723ZM7.15774 11.4539C6.93936 11.4548 6.73016 11.5473 6.57575 11.7112C6.42133 11.8752 6.3342 12.0972 6.33335 12.329V15.1123C6.33249 15.3453 6.41886 15.5691 6.57346 15.7345C6.72807 15.8999 6.93824 15.9934 7.15774 15.9943C7.26697 15.9947 7.37521 15.9722 7.47621 15.9281C7.57721 15.8839 7.66898 15.819 7.74622 15.737C7.82346 15.655 7.88465 15.5576 7.92625 15.4504C7.96786 15.3431 7.98906 15.2282 7.98863 15.1123V12.329C7.9882 12.2137 7.96638 12.0995 7.92439 11.9931C7.88241 11.8867 7.82108 11.7901 7.74393 11.7088C7.66677 11.6275 7.57529 11.5632 7.47471 11.5195C7.37413 11.4757 7.26643 11.4534 7.15774 11.4539ZM9.06037 22.5595C8.74492 22.5595 8.51346 22.7151 8.37496 22.846C8.23639 22.977 8.15287 23.1035 8.07906 23.2304C7.93173 23.4841 7.82507 23.7539 7.71697 24.0643C7.50084 24.6853 7.3014 25.4557 7.10594 26.2367C6.91045 27.0178 6.72174 27.8056 6.55793 28.4125C6.47598 28.716 6.40091 28.9768 6.33961 29.1504C6.32709 29.1842 6.31458 29.2134 6.29926 29.2413C6.27111 29.2566 6.24233 29.2725 6.20886 29.2859C6.04527 29.351 5.80286 29.4341 5.517 29.521C4.94522 29.6949 4.20304 29.8918 3.4673 30.0993C2.73152 30.3068 2.00573 30.522 1.42081 30.7514C1.12836 30.866 0.870961 30.9775 0.631959 31.134C0.512473 31.2122 0.394865 31.301 0.271501 31.448C0.148262 31.595 0 31.8424 0 32.1773C0 32.5122 0.148262 32.7578 0.271501 32.9048C0.39474 33.0519 0.512348 33.1372 0.631959 33.2154C0.870929 33.3719 1.12836 33.4834 1.42081 33.5981C2.00573 33.8274 2.73152 34.0426 3.4673 34.2501C4.20304 34.4577 4.94522 34.6579 5.517 34.8318C5.80289 34.9188 6.0453 34.9984 6.20886 35.0635C6.24264 35.0768 6.27204 35.0927 6.29926 35.1081C6.3149 35.136 6.32741 35.1648 6.33961 35.1991C6.40091 35.3727 6.47598 35.6334 6.55793 35.9369C6.72183 36.5439 6.91045 37.3317 7.10594 38.1127C7.30143 38.8938 7.50093 39.6642 7.71697 40.2851C7.82488 40.5956 7.93155 40.8654 8.07906 41.1191C8.15287 41.2459 8.23639 41.3725 8.37496 41.5034C8.51352 41.6344 8.74492 41.7934 9.06037 41.7934C9.37582 41.7934 9.60725 41.6344 9.74575 41.5034C9.88432 41.3725 9.96783 41.2459 10.0417 41.1191C10.189 40.8654 10.2941 40.5956 10.4021 40.2851C10.6183 39.6642 10.8177 38.8938 11.0132 38.1127C11.2087 37.3317 11.3973 36.5439 11.5611 35.9369C11.6431 35.6335 11.7182 35.3727 11.7795 35.1991C11.792 35.1648 11.8045 35.1361 11.8198 35.1081C11.848 35.0929 11.8768 35.0769 11.9105 35.0635C12.0741 34.9984 12.3165 34.9188 12.6024 34.8318C13.1742 34.6579 13.9164 34.4577 14.6521 34.2501C15.3879 34.0426 16.1137 33.8274 16.6986 33.5981C16.991 33.4834 17.2484 33.3719 17.4874 33.2154C17.6069 33.1372 17.7261 33.0519 17.8495 32.9048C17.9728 32.7578 18.1195 32.5122 18.1195 32.1773C18.1195 31.8424 17.9728 31.595 17.8495 31.448C17.7263 31.301 17.6068 31.2122 17.4874 31.134C17.2485 30.9776 16.991 30.866 16.6986 30.7514C16.1137 30.522 15.3879 30.3068 14.6521 30.0993C13.9164 29.8918 13.1742 29.6949 12.6024 29.521C12.3165 29.4341 12.0741 29.351 11.9105 29.2859C11.8768 29.2727 11.8473 29.2567 11.8198 29.2413C11.8042 29.2134 11.7917 29.1842 11.7795 29.1504C11.7182 28.9768 11.6431 28.716 11.5611 28.4125C11.3972 27.8056 11.2087 27.0178 11.0132 26.2367C10.8177 25.4557 10.6182 24.6853 10.4021 24.0643C10.2942 23.7538 10.1891 23.4841 10.0417 23.2304C9.96783 23.1035 9.88432 22.977 9.74575 22.846C9.60719 22.7151 9.37582 22.5595 9.06037 22.5595ZM39.494 24.2308C39.1906 24.2308 38.9703 24.3826 38.8442 24.5019C38.7181 24.6212 38.65 24.7315 38.5886 24.8365C38.4667 25.0465 38.386 25.2553 38.3043 25.4903C38.1407 25.9601 37.9922 26.5262 37.8485 27.0998C37.7049 27.6735 37.5691 28.2507 37.4508 28.6888C37.3948 28.8955 37.3442 29.0641 37.3038 29.1813C37.1934 29.2241 37.0345 29.2765 36.8399 29.3357C36.4272 29.4612 35.885 29.6071 35.3446 29.7595C34.8042 29.9119 34.2693 30.0699 33.8267 30.2434C33.6053 30.3302 33.4087 30.4142 33.2109 30.5437C33.112 30.6085 33.0113 30.6826 32.8987 30.8165C32.7864 30.9505 32.6435 31.1841 32.6435 31.5064C32.6435 31.8286 32.7864 32.0622 32.8987 32.1962C33.0113 32.3301 33.1117 32.4025 33.2109 32.4673C33.4089 32.5968 33.6054 32.6825 33.8267 32.7693C34.2693 32.9428 34.8042 33.0991 35.3446 33.2515C35.885 33.4039 36.4272 33.5498 36.8399 33.6753C37.0347 33.7345 37.1934 33.7869 37.3038 33.8297C37.3442 33.9469 37.3948 34.1162 37.4508 34.3239C37.569 34.762 37.7048 35.3375 37.8485 35.9112C37.992 36.4848 38.1409 37.0543 38.3043 37.5242C38.386 37.7591 38.467 37.9662 38.5886 38.1762C38.6496 38.2812 38.7178 38.3898 38.8442 38.5091C38.9702 38.6284 39.1905 38.7802 39.494 38.7802C39.7974 38.7802 40.0177 38.6284 40.1439 38.5091C40.2699 38.3898 40.3381 38.2812 40.3991 38.1762C40.5211 37.9662 40.6018 37.7591 40.6837 37.5242C40.8473 37.0543 40.9959 36.4848 41.1396 35.9112C41.2831 35.3375 41.4189 34.762 41.5372 34.3239C41.5932 34.1162 41.6454 33.9469 41.6858 33.8297C41.7962 33.7869 41.9532 33.7345 42.1481 33.6753C42.5607 33.5498 43.1029 33.4039 43.6433 33.2515C44.1838 33.0991 44.7186 32.9428 45.1612 32.7693C45.3827 32.6825 45.5793 32.5968 45.7771 32.4673C45.876 32.4025 45.9767 32.3301 46.089 32.1962C46.2016 32.0623 46.3445 31.8286 46.3445 31.5064C46.3445 31.1841 46.2016 30.9505 46.089 30.8165C45.9767 30.6826 45.876 30.6085 45.7771 30.5437C45.5794 30.4142 45.3825 30.3302 45.1612 30.2434C44.7186 30.0699 44.1838 29.912 43.6433 29.7595C43.1029 29.6071 42.5607 29.4612 42.1481 29.3357C41.9532 29.2765 41.7962 29.2241 41.6858 29.1813C41.6457 29.0641 41.5929 28.8956 41.5372 28.6888C41.419 28.2507 41.2832 27.6735 41.1396 27.0998C40.996 26.5262 40.8471 25.9601 40.6837 25.4903C40.6021 25.2553 40.5214 25.0465 40.3991 24.8365C40.3381 24.7315 40.2699 24.6212 40.1439 24.5019C40.0178 24.3826 39.7976 24.2308 39.494 24.2308ZM9.06037 25.4302C9.17829 25.8391 9.29434 26.2107 9.41438 26.6897C9.60612 27.4553 9.79261 28.2453 9.96883 28.8981C10.0567 29.2246 10.1418 29.5161 10.2306 29.7681C10.3195 30.0202 10.342 30.2037 10.6299 30.5094C10.918 30.8151 11.0908 30.8388 11.3282 30.9333C11.5656 31.0278 11.8403 31.1177 12.1478 31.2112C12.7628 31.3983 13.507 31.5964 14.2282 31.7998C14.6818 31.9277 15.0347 32.0496 15.4212 32.1756C15.0348 32.3015 14.6816 32.4252 14.2282 32.5531C13.507 32.7565 12.7628 32.9546 12.1478 33.1417C11.8403 33.2352 11.5657 33.3251 11.3282 33.4196C11.0908 33.5141 10.9179 33.5344 10.6299 33.8401C10.3418 34.1458 10.3196 34.3327 10.2306 34.5848C10.1415 34.8368 10.0567 35.1266 9.96883 35.453C9.79273 36.1059 9.60597 36.8976 9.41438 37.6632C9.29459 38.1422 9.17854 38.5139 9.06037 38.9227C8.94245 38.5139 8.82453 38.1422 8.70473 37.6632C8.51299 36.8976 8.32647 36.1059 8.15028 35.453C8.06207 35.1266 7.97731 34.8368 7.88847 34.5848C7.79964 34.3327 7.77712 34.1458 7.48923 33.8401C7.20115 33.5344 7.02996 33.5142 6.79252 33.4196C6.55512 33.3251 6.28046 33.2352 5.97295 33.1417C5.35795 32.9546 4.61207 32.7565 3.89091 32.5531C3.43749 32.4252 3.08432 32.3015 2.69793 32.1756C3.08447 32.0497 3.4373 31.9277 3.89091 31.7998C4.61207 31.5964 5.35795 31.3983 5.97295 31.2112C6.28043 31.1177 6.55505 31.0278 6.79252 30.9333C7.02993 30.8388 7.20125 30.8151 7.48923 30.5094C7.77731 30.2037 7.79952 30.0202 7.88847 29.7681C7.97762 29.5161 8.06238 29.2246 8.15028 28.8981C8.32638 28.2453 8.51311 27.4553 8.70473 26.6897C8.82484 26.2107 8.94245 25.8391 9.06037 25.4302ZM39.494 27.3898C39.5097 27.4514 39.5222 27.4889 39.5394 27.5511C39.6792 28.1093 39.8146 28.6888 39.9451 29.1727C40.0105 29.4147 40.0752 29.6315 40.1441 29.8265C40.2129 30.0215 40.2157 30.1667 40.4867 30.4545C40.7579 30.7424 40.8931 30.7435 41.0768 30.8166C41.2604 30.8897 41.4647 30.9549 41.6926 31.0242C42.1485 31.1629 42.6944 31.31 43.2202 31.4583C43.279 31.4749 43.314 31.4899 43.3722 31.5064C43.314 31.523 43.279 31.5379 43.2202 31.5544C42.6944 31.7027 42.1485 31.8465 41.6926 31.9851C41.4646 32.0545 41.2604 32.1231 41.0768 32.1962C40.8932 32.2693 40.7579 32.2687 40.4867 32.5565C40.2155 32.8444 40.213 32.9913 40.1441 33.1863C40.0752 33.3813 40.0105 33.5981 39.9451 33.8401C39.8144 34.324 39.6792 34.9034 39.5394 35.4616C39.5237 35.524 39.5112 35.5613 39.494 35.6229C39.4784 35.5613 39.4659 35.524 39.4487 35.4616C39.3088 34.9034 39.1734 34.324 39.0429 33.8401C38.9775 33.5981 38.9128 33.3813 38.844 33.1863C38.7752 32.9913 38.7739 32.8444 38.5029 32.5565C38.2317 32.2687 38.0949 32.2693 37.9113 32.1962C37.7277 32.1231 37.5233 32.0545 37.2954 31.9851C36.8395 31.8465 36.2936 31.7027 35.7678 31.5544C35.709 31.5378 35.674 31.5229 35.6158 31.5064C35.674 31.4898 35.709 31.4748 35.7678 31.4583C36.2936 31.31 36.8395 31.1629 37.2954 31.0242C37.5234 30.9549 37.7276 30.8897 37.9113 30.8166C38.0949 30.7435 38.2317 30.7424 38.5029 30.4545C38.7741 30.1667 38.775 30.0215 38.844 29.8265C38.9128 29.6315 38.9775 29.4147 39.0429 29.1727C39.1737 28.6888 39.3088 28.1093 39.4487 27.5511C39.4643 27.4889 39.4768 27.4514 39.494 27.3898ZM22.6454 36.5461C22.5367 36.5456 22.429 36.5679 22.3284 36.6117C22.2278 36.6554 22.1363 36.7197 22.0592 36.801C21.982 36.8822 21.9207 36.9789 21.8787 37.0853C21.8367 37.1917 21.8149 37.3058 21.8145 37.4212V40.2045C21.814 40.3204 21.8352 40.4353 21.8768 40.5425C21.9184 40.6498 21.9796 40.7472 22.0569 40.8292C22.1341 40.9112 22.2259 40.9761 22.3269 41.0203C22.4279 41.0644 22.5361 41.0869 22.6454 41.0865C22.7542 41.0862 22.8619 41.0632 22.9623 41.0188C23.0628 40.9743 23.154 40.9092 23.2307 40.8273C23.3074 40.7454 23.3682 40.6482 23.4095 40.5413C23.4508 40.4345 23.4718 40.32 23.4714 40.2045V37.4212C23.4705 37.1891 23.3832 36.9668 23.2284 36.8028C23.0736 36.6388 22.864 36.5466 22.6454 36.5461ZM18.0755 41.3902C17.856 41.3911 17.6458 41.4845 17.4912 41.65C17.3366 41.8154 17.2503 42.0392 17.2511 42.2722C17.2515 42.5043 17.3385 42.7268 17.493 42.8911C17.6474 43.0554 17.8568 43.1481 18.0755 43.149H20.6975C20.9161 43.1481 21.1256 43.0554 21.28 42.8911C21.4345 42.7268 21.5215 42.5043 21.5219 42.2722C21.5223 42.1568 21.5013 42.0425 21.4601 41.9357C21.4189 41.8289 21.3583 41.7318 21.2818 41.6499C21.2052 41.568 21.1142 41.5029 21.0139 41.4584C20.9137 41.4138 20.8061 41.3906 20.6975 41.3902H18.0755ZM24.5883 41.3902C24.3688 41.3911 24.1587 41.4845 24.0041 41.65C23.8495 41.8154 23.7631 42.0392 23.764 42.2722C23.7644 42.5043 23.8513 42.7268 24.0058 42.8911C24.1602 43.0554 24.3697 43.1481 24.5883 43.149H27.2103C27.3191 43.1495 27.427 43.1271 27.5277 43.0833C27.6283 43.0395 27.7199 42.975 27.7971 42.8935C27.8742 42.8121 27.9355 42.7153 27.9774 42.6087C28.0193 42.502 28.041 42.3877 28.0412 42.2722C28.0416 42.1562 28.0204 42.0413 27.9788 41.9341C27.9372 41.8269 27.876 41.7295 27.7988 41.6475C27.7215 41.5655 27.6298 41.5006 27.5288 41.4564C27.4278 41.4122 27.3196 41.3897 27.2103 41.3902H24.5883ZM22.6454 43.4596C22.5367 43.4592 22.429 43.4814 22.3284 43.5252C22.2278 43.5689 22.1363 43.6332 22.0592 43.7145C21.982 43.7958 21.9207 43.8924 21.8787 43.9988C21.8367 44.1052 21.8149 44.2194 21.8145 44.3347V47.118C21.814 47.234 21.8352 47.3489 21.8768 47.4561C21.9184 47.5633 21.9796 47.6607 22.0569 47.7427C22.1341 47.8247 22.2259 47.8896 22.3269 47.9338C22.4279 47.9779 22.5361 48.0005 22.6454 48C22.7542 47.9998 22.8619 47.9768 22.9623 47.9323C23.0628 47.8878 23.154 47.8228 23.2307 47.7408C23.3074 47.6589 23.3682 47.5617 23.4095 47.4549C23.4508 47.348 23.4718 47.2335 23.4714 47.118V44.3347C23.4705 44.1026 23.3832 43.8803 23.2284 43.7163C23.0736 43.5524 22.864 43.4601 22.6454 43.4596Z" fill="currentColor"/>
</svg>