<svg xmlns="http://www.w3.org/2000/svg" width="16" height="16" viewBox="0 0 16 16" fill="none">
  <path d="M9.68022 10.3803H14.5248V14.4012H9.68022V10.3803Z" fill="#45322B"/>
  <path d="M1.58989 10.3803H6.43442V14.4012H1.58989V10.3803Z" fill="#45322B"/>
  <path d="M5.57773 1.66016H10.4223V5.6811H5.57773V1.66016Z" fill="#45322B"/>
  <path fill-rule="evenodd" clip-rule="evenodd" d="M5.02002 1.6675C5.02002 1.4024 5.23492 1.1875 5.50002 1.1875H10.5C10.7651 1.1875 10.98 1.4024 10.98 1.6675V5.6675C10.98 5.9326 10.7651 6.1475 10.5 6.1475H8.48002V7.52026H11.5C11.7651 7.52026 11.98 7.73517 11.98 8.00026V9.85308H14.5C14.7651 9.85308 14.98 10.068 14.98 10.3331V14.3331C14.98 14.5982 14.7651 14.8131 14.5 14.8131H9.50002C9.23492 14.8131 9.02002 14.5982 9.02002 14.3331V10.3331C9.02002 10.068 9.23492 9.85308 9.50002 9.85308H11.02V8.48026H4.98002V9.85308H6.50002C6.76512 9.85308 6.98002 10.068 6.98002 10.3331V14.3331C6.98002 14.5982 6.76512 14.8131 6.50002 14.8131H1.50002C1.23492 14.8131 1.02002 14.5982 1.02002 14.3331V10.3331C1.02002 10.068 1.23492 9.85308 1.50002 9.85308H4.02002V8.00026C4.02002 7.73517 4.23492 7.52026 4.50002 7.52026H7.52002V6.1475H5.50002C5.23492 6.1475 5.02002 5.9326 5.02002 5.6675V1.6675ZM5.98002 2.1475V5.1875H10.02V2.1475H5.98002ZM1.98002 10.8131V13.8531H6.02002V10.8131H1.98002ZM9.98002 10.8131V13.8531H14.02V10.8131H9.98002Z" fill="#E08855"/>
</svg>